<?xml version="1.0" standalone="no"?>
<!DOCTYPE svg PUBLIC "-//W3C//DTD SVG 20010904//EN"
 "http://www.w3.org/TR/2001/REC-SVG-20010904/DTD/svg10.dtd">
<svg version="1.0" xmlns="http://www.w3.org/2000/svg"
 width="890.000000pt" height="1280.000000pt" viewBox="0 0 890.000000 1280.000000"
 preserveAspectRatio="xMidYMid meet">
<g transform="translate(0.000000,1280.000000) scale(0.100000,-0.100000)"
fill="#000000" stroke="none">
<path d="M1698 12129 c-123 -18 -241 -108 -296 -226 l-27 -58 -3 -771 c-2
-597 -5 -774 -15 -782 -9 -7 -47 3 -132 35 -103 39 -131 46 -195 46 -156 1
-268 -85 -307 -237 -15 -56 -16 -74 -5 -137 20 -114 58 -181 181 -317 117
-127 257 -254 381 -343 41 -29 78 -58 82 -64 10 -13 10 -467 0 -481 -4 -6 -30
-23 -57 -37 -28 -14 -92 -57 -142 -96 -121 -93 -262 -185 -403 -262 -179 -97
-230 -157 -230 -269 0 -70 25 -124 78 -172 143 -129 343 -149 666 -67 94 24
97 22 94 -65 l-3 -60 -75 -53 c-97 -68 -254 -225 -281 -280 -18 -37 -29 -127
-74 -576 -63 -622 -76 -776 -68 -808 10 -40 50 -86 96 -108 70 -34 122 -26
176 27 11 10 16 11 21 1 16 -26 -20 -360 -76 -702 -29 -174 -44 -291 -40 -312
8 -42 61 -90 116 -105 58 -15 104 1 173 60 32 27 62 50 67 50 4 0 24 -22 43
-49 43 -59 83 -91 162 -128 60 -28 61 -28 302 -31 l243 -4 76 -111 c113 -165
207 -278 346 -412 263 -257 469 -383 1163 -715 395 -190 639 -369 853 -629 83
-99 250 -455 367 -775 74 -205 164 -600 345 -1504 65 -327 120 -596 123 -598
2 -2 729 -3 1615 -2 l1612 3 -151 245 c-391 635 -628 1035 -842 1425 -129 235
-388 737 -459 890 -26 55 -88 188 -138 295 -139 298 -468 905 -618 1140 -63
98 -162 310 -187 399 -35 124 -42 210 -35 441 3 113 3 259 -2 325 -4 66 -10
293 -13 505 -7 432 -15 500 -71 615 -19 38 -59 102 -89 140 -140 177 -232 442
-266 764 -16 156 -6 839 15 1031 34 303 89 580 168 840 27 91 62 188 78 215
43 78 63 150 58 211 -5 64 -30 96 -98 127 -103 47 -349 13 -528 -73 -105 -50
-156 -86 -225 -156 -40 -41 -58 -53 -62 -43 -2 8 -6 572 -7 1254 -3 1210 -3
1241 -23 1288 -43 103 -127 186 -232 229 l-58 23 -1555 1 c-855 1 -1581 -2
-1612 -7z m3320 -641 c9 -9 12 -318 12 -1328 l0 -1316 -39 -160 c-102 -412
-179 -920 -212 -1394 l-11 -165 -79 -240 c-44 -132 -98 -282 -120 -333 -73
-168 -218 -643 -260 -851 -19 -95 -25 -112 -43 -116 -12 -3 -633 -4 -1381 -3
l-1360 3 -3 2945 c-1 1620 0 2951 3 2958 6 17 3475 18 3493 0z"/>
</g>
</svg>
