<?xml version="1.0" standalone="no"?>
<!DOCTYPE svg PUBLIC "-//W3C//DTD SVG 20010904//EN"
 "http://www.w3.org/TR/2001/REC-SVG-20010904/DTD/svg10.dtd">
<svg version="1.0" xmlns="http://www.w3.org/2000/svg"
 width="122.000000pt" height="122.000000pt" viewBox="0 0 122.000000 122.000000"
 preserveAspectRatio="xMidYMid meet">
<metadata>
Created by potrace 1.11, written by Peter Selinger 2001-2013
</metadata>
<g transform="translate(0.000000,122.000000) scale(0.100000,-0.100000)"
fill="#000000" stroke="none">
<path d="M510 1026 c-123 -36 -214 -119 -260 -237 -86 -222 -2 -436 206 -529
61 -27 167 -37 231 -21 64 16 153 61 153 78 0 10 -71 152 -85 171 -2 2 -19 -8
-39 -22 -20 -13 -50 -28 -67 -31 -35 -8 -116 2 -124 15 -3 4 99 77 225 161
143 96 230 159 230 170 0 27 -74 133 -118 167 -97 77 -244 110 -352 78z m173
-202 c9 -3 17 -9 17 -15 0 -14 -279 -218 -281 -205 -7 41 21 130 54 166 56 63
121 80 210 54z"/>
</g>
</svg>
